<svg width="62" height="56" viewBox="0 0 62 56" fill="none" xmlns="http://www.w3.org/2000/svg">
<g clip-path="url(#clip0)">
<path d="M41.8998 9.20808C42.9029 9.20808 43.7161 8.47357 43.7161 7.56756V1.64223C43.7161 0.736224 42.9029 0.00170898 41.8998 0.00170898C40.8967 0.00170898 40.0835 0.736224 40.0835 1.64223V7.56756C40.0835 8.47357 40.8967 9.20808 41.8998 9.20808Z" fill="#FF7913"/>
<path d="M34.6346 9.20808C35.6377 9.20808 36.4509 8.47357 36.4509 7.56756V1.64223C36.4509 0.736224 35.6377 0.00170898 34.6346 0.00170898C33.6316 0.00170898 32.8184 0.736224 32.8184 1.64223V7.56756C32.8184 8.47357 33.6316 9.20808 34.6346 9.20808Z" fill="#FF7913"/>
<path d="M27.3695 9.20808C28.3726 9.20808 29.1858 8.47357 29.1858 7.56756V1.64223C29.1858 0.736224 28.3726 0.00170898 27.3695 0.00170898C26.3664 0.00170898 25.5532 0.736224 25.5532 1.64223V7.56756C25.5532 8.47357 26.3664 9.20808 27.3695 9.20808Z" fill="#FF7913"/>
<path d="M20.1041 9.20808C21.1072 9.20808 21.9204 8.47357 21.9204 7.56756V1.64223C21.9204 0.736224 21.1072 0.00170898 20.1041 0.00170898C19.1011 0.00170898 18.2878 0.736224 18.2878 1.64223V7.56756C18.2878 8.47357 19.1011 9.20808 20.1041 9.20808Z" fill="#FF7913"/>
<path d="M49.3965 33.2372H53.9025C58.3675 33.2372 62.0001 29.9562 62.0001 25.9232V24.6334C62.0001 20.6005 58.3675 17.3195 53.9025 17.3195H53.0054V15.7452C53.7103 15.5198 54.2162 14.914 54.2162 14.2001C54.2162 13.2941 53.403 12.5596 52.3999 12.5596H9.60405C8.60098 12.5596 7.78776 13.2941 7.78776 14.2001C7.78776 14.914 8.29366 15.5198 8.99862 15.7452V22.5133C8.99862 27.5166 11.1029 32.2433 14.9238 35.8224L18.0647 38.7645H9.52147C4.27131 38.7645 0 42.6299 0 47.3811C0 52.1324 4.27131 55.9979 9.52147 55.9979H60.1579C61.161 55.9979 61.9742 55.2634 61.9742 54.3574C61.9742 53.4514 61.161 52.7169 60.1579 52.7169H59.815C58.7262 51.3499 58.1125 49.5268 58.1125 47.6044C58.1125 45.4622 58.8876 43.4335 60.2085 42.0432C61.188 42.0187 61.9742 41.2956 61.9742 40.405C61.9742 39.499 61.161 38.7645 60.1579 38.7645H43.9392L47.08 35.8224C47.9412 35.0157 48.7142 34.1503 49.3965 33.2372ZM53.9024 20.6005C56.3644 20.6005 58.3674 22.4097 58.3674 24.6334V25.9232C58.3674 28.147 56.3644 29.9562 53.9024 29.9562H51.3584C52.4374 27.6306 53.0052 25.1094 53.0052 22.5132V20.6005H53.9024ZM9.52147 52.7169C6.27431 52.7169 3.63258 50.3232 3.63258 47.3811C3.63258 44.4391 6.27431 42.0455 9.52147 42.0455H55.882C55.2562 43.177 54.8272 44.4351 54.6211 45.764H9.64353C8.64045 45.764 7.82724 46.4985 7.82724 47.4045C7.82724 48.3105 8.64045 49.0451 9.64353 49.0451H54.5715C54.7307 50.3387 55.1019 51.5832 55.6605 52.7169H9.52147ZM38.8929 38.7645H23.1109L17.5387 33.5448C14.374 30.5805 12.6311 26.6626 12.6311 22.5132V15.8405H49.3728V22.5132C49.3728 25.3509 48.5572 28.0802 47.0295 30.4704C46.8546 30.6374 46.7186 30.8374 46.6333 31.0593C46.0096 31.9433 45.2857 32.7764 44.4653 33.5449L38.8929 38.7645Z" fill="#FF7913"/>
</g>
<defs>
<clipPath id="clip0">
<rect width="62" height="56" fill="white"/>
</clipPath>
</defs>
</svg>
