<svg width="62" height="56" viewBox="0 0 62 56" fill="none" xmlns="http://www.w3.org/2000/svg">
<path d="M0.44043 21.5734L2.25319 21.4865L2.34723 23.0875L0.534467 23.1743L0.44043 21.5734Z" fill="#FF7913"/>
<path d="M30.0925 44.4276H31.9072V46.0302H30.0925V44.4276Z" fill="#FF7913"/>
<path d="M30.0925 41.2225H31.9072V42.8251H30.0925V41.2225Z" fill="#FF7913"/>
<path d="M30.0925 38.0173H31.9072V39.6199H30.0925V38.0173Z" fill="#FF7913"/>
<path d="M23.2969 41.2225H25.1116V42.8251H23.2969V41.2225Z" fill="#FF7913"/>
<path d="M23.2969 44.4276H25.1116V46.0302H23.2969V44.4276Z" fill="#FF7913"/>
<path d="M23.2969 38.0173H25.1116V39.6199H23.2969V38.0173Z" fill="#FF7913"/>
<path d="M16.5015 41.2225H18.3162V42.8251H16.5015V41.2225Z" fill="#FF7913"/>
<path d="M16.5015 38.0173H18.3162V39.6199H16.5015V38.0173Z" fill="#FF7913"/>
<path d="M16.5015 44.4276H18.3162V46.0302H16.5015V44.4276Z" fill="#FF7913"/>
<path d="M9.70581 44.4276H11.5205V46.0302H9.70581V44.4276Z" fill="#FF7913"/>
<path d="M9.70581 38.0173H11.5205V39.6199H9.70581V38.0173Z" fill="#FF7913"/>
<path d="M9.70581 41.2225H11.5205V42.8251H9.70581V41.2225Z" fill="#FF7913"/>
<path d="M36.8882 41.2225H38.7029V42.8251H36.8882V41.2225Z" fill="#FF7913"/>
<path d="M36.8882 38.0173H38.7029V39.6199H36.8882V38.0173Z" fill="#FF7913"/>
<path d="M36.8882 44.4276H38.7029V46.0302H36.8882V44.4276Z" fill="#FF7913"/>
<path d="M43.6838 41.2225H45.4985V42.8251H43.6838V41.2225Z" fill="#FF7913"/>
<path d="M43.6838 38.0173H45.4985V39.6199H43.6838V38.0173Z" fill="#FF7913"/>
<path d="M43.6838 44.4276H45.4985V46.0302H43.6838V44.4276Z" fill="#FF7913"/>
<path d="M50.4795 38.0173H52.2942V39.6199H50.4795V38.0173Z" fill="#FF7913"/>
<path d="M50.4795 44.4276H52.2942V46.0302H50.4795V44.4276Z" fill="#FF7913"/>
<path d="M50.4795 41.2225H52.2942V42.8251H50.4795V41.2225Z" fill="#FF7913"/>
<path d="M24.3503 20.1471H37.6496V21.7862H24.3503V20.1471Z" fill="#FF7913"/>
<path d="M60.7544 11.2471C59.8891 10.4233 58.7203 9.96973 57.4631 9.96973H4.53683C3.27961 9.96973 2.11083 10.4234 1.24558 11.2471C0.380458 12.0709 -0.0596659 13.149 0.00651 14.2828L0.337631 19.9647L2.14979 19.8785L1.81866 14.1966C1.77898 13.5163 2.04296 12.8694 2.5622 12.3751C3.08145 11.8809 3.78277 11.6087 4.53695 11.6087H57.4631C58.2173 11.6087 58.9188 11.8809 59.4379 12.3751C59.957 12.8694 60.2211 13.5163 60.1814 14.1966L59.2616 29.9752C59.2362 30.4106 58.8382 30.7517 58.3555 30.7517H56.4775V24.1743H5.52258V30.7517H3.64449C3.16178 30.7517 2.76376 30.4106 2.73835 29.9753L2.42961 24.6796L0.617457 24.7658L0.926197 30.0614C0.989349 31.1433 1.82024 32.0291 2.92623 32.3021L3.46012 33.869C3.81374 34.9071 4.85912 35.6045 6.06166 35.6045H55.9381C57.1405 35.6045 58.186 34.9071 58.5396 33.869L59.0735 32.3021C60.1796 32.0291 61.0104 31.1433 61.0735 30.0614L61.9933 14.2828C62.0596 13.149 61.6195 12.0709 60.7544 11.2471ZM7.33727 25.8135H54.6628V30.7518H7.33727V25.8135ZM56.8054 33.3871C56.6874 33.7331 56.339 33.9655 55.9382 33.9655H6.06178C5.6611 33.9655 5.31256 33.7331 5.1946 33.3871L4.85525 32.3909H5.52258H56.4775H57.1448L56.8054 33.3871Z" fill="#FF7913"/>
<path d="M12.9431 13.5344H14.7174V15.1735H12.9431V13.5344Z" fill="#FF7913"/>
<path d="M9.39453 13.5344H11.1688V15.1735H9.39453V13.5344Z" fill="#FF7913"/>
<path d="M5.84595 13.5344H7.62023V15.1735H5.84595V13.5344Z" fill="#FF7913"/>
</svg>
