<svg width="63" height="56" viewBox="0 0 63 56" fill="none" xmlns="http://www.w3.org/2000/svg">
<path d="M7.875 14H9.84375C10.888 14 11.8896 13.6313 12.628 12.9749C13.3664 12.3185 13.7812 11.4283 13.7812 10.5C13.7812 9.57174 13.3664 8.6815 12.628 8.02513C11.8896 7.36875 10.888 7 9.84375 7H6.89062C6.62955 7 6.37917 7.09219 6.19457 7.25628C6.00996 7.42038 5.90625 7.64294 5.90625 7.875V15.75C5.90625 15.9821 6.00996 16.2046 6.19457 16.3687C6.37917 16.5328 6.62955 16.625 6.89062 16.625C7.1517 16.625 7.40208 16.5328 7.58668 16.3687C7.77129 16.2046 7.875 15.9821 7.875 15.75V14ZM11.8125 10.5C11.8119 10.964 11.6043 11.4088 11.2352 11.7368C10.8661 12.0649 10.3657 12.2495 9.84375 12.25H7.875V8.75H9.84375C10.3657 8.75055 10.8661 8.9351 11.2352 9.26317C11.6043 9.59124 11.8119 10.036 11.8125 10.5Z" fill="#FF7913"/>
<path d="M45.2309 36.4733C45.1655 36.2991 45.0402 36.1475 44.8726 36.0401C44.7049 35.9328 44.5036 35.875 44.2969 35.875H32.4844C32.2778 35.875 32.0765 35.9328 31.9088 36.0401C31.7412 36.1475 31.6159 36.2991 31.5505 36.4733L29.5818 41.7233C29.5324 41.8548 29.519 41.9949 29.5425 42.132C29.566 42.269 29.6259 42.3992 29.7171 42.5116C29.8083 42.6241 29.9283 42.7157 30.0671 42.7789C30.206 42.8421 30.3597 42.875 30.5157 42.875H46.2657C46.4217 42.875 46.5754 42.8421 46.7143 42.7789C46.8531 42.7157 46.9731 42.6241 47.0643 42.5116C47.1555 42.3992 47.2154 42.269 47.2389 42.132C47.2624 41.9949 47.249 41.8548 47.1996 41.7233L45.2309 36.4733ZM31.8815 41.125L33.1939 37.625H43.5875L44.8999 41.125H31.8815Z" fill="#FF7913"/>
<path d="M24.6094 35.875C23.8306 35.875 23.0693 36.0803 22.4218 36.4649C21.7743 36.8494 21.2696 37.3961 20.9716 38.0356C20.6736 38.6751 20.5956 39.3789 20.7475 40.0578C20.8995 40.7368 21.2745 41.3604 21.8251 41.8499C22.3758 42.3394 23.0774 42.6727 23.8412 42.8078C24.605 42.9428 25.3967 42.8735 26.1162 42.6086C26.8357 42.3437 27.4506 41.8951 27.8833 41.3195C28.3159 40.7439 28.5469 40.0672 28.5469 39.375C28.5457 38.4471 28.1305 37.5574 27.3923 36.9013C26.6541 36.2451 25.6533 35.876 24.6094 35.875ZM24.6094 41.125C24.22 41.125 23.8394 41.0224 23.5156 40.8301C23.1918 40.6378 22.9395 40.3645 22.7905 40.0447C22.6415 39.7249 22.6025 39.3731 22.6785 39.0336C22.7544 38.6941 22.9419 38.3823 23.2173 38.1376C23.4926 37.8928 23.8434 37.7262 24.2253 37.6586C24.6072 37.5911 25.003 37.6258 25.3628 37.7582C25.7225 37.8907 26.03 38.115 26.2463 38.4028C26.4627 38.6905 26.5781 39.0289 26.5781 39.375C26.5775 39.839 26.3699 40.2838 26.0008 40.6118C25.6317 40.9399 25.1313 41.1245 24.6094 41.125Z" fill="#FF7913"/>
<path d="M52.1719 35.875C51.3931 35.875 50.6318 36.0803 49.9843 36.4649C49.3368 36.8494 48.8321 37.3961 48.5341 38.0356C48.2361 38.6751 48.1581 39.3789 48.31 40.0578C48.462 40.7368 48.837 41.3604 49.3876 41.8499C49.9383 42.3394 50.6399 42.6727 51.4037 42.8078C52.1675 42.9428 52.9592 42.8735 53.6787 42.6086C54.3982 42.3437 55.0131 41.8951 55.4458 41.3195C55.8784 40.7439 56.1094 40.0672 56.1094 39.375C56.1082 38.4471 55.693 37.5574 54.9548 36.9013C54.2166 36.2451 53.2158 35.876 52.1719 35.875ZM52.1719 41.125C51.7825 41.125 51.4019 41.0224 51.0781 40.8301C50.7543 40.6378 50.502 40.3645 50.353 40.0447C50.204 39.7249 50.165 39.3731 50.241 39.0336C50.3169 38.6941 50.5044 38.3823 50.7798 38.1376C51.0551 37.8928 51.4059 37.7262 51.7878 37.6586C52.1697 37.5911 52.5655 37.6258 52.9253 37.7582C53.285 37.8907 53.5925 38.115 53.8088 38.4028C54.0252 38.6905 54.1406 39.0289 54.1406 39.375C54.14 39.839 53.9324 40.2838 53.5633 40.6118C53.1942 40.9399 52.6938 41.1245 52.1719 41.125Z" fill="#FF7913"/>
<path d="M61.0312 50.75H57.9083C58.0208 50.4691 58.0782 50.1731 58.0781 49.875V48.125H59.0625C59.3236 48.125 59.574 48.0328 59.7586 47.8687C59.9432 47.7046 60.0469 47.4821 60.0469 47.25V44.625C60.0469 44.3929 59.9432 44.1704 59.7586 44.0063C59.574 43.8422 59.3236 43.75 59.0625 43.75V36.75C59.0613 35.8221 58.6461 34.9324 57.9079 34.2763C57.1698 33.6201 56.1689 33.251 55.125 33.25H52.9938L51.708 26.9686L51.612 26.4994C51.4479 25.6926 50.9701 24.9628 50.262 24.4374C49.554 23.912 48.6608 23.6245 47.7385 23.625H29.0428C28.1204 23.6245 27.2272 23.912 26.5192 24.4374C25.8112 24.9628 25.3334 25.6926 25.1692 26.4994L25.0733 26.9686L23.7874 33.25H21.6562C20.6123 33.251 19.6115 33.6201 18.8733 34.2763C18.1351 34.9324 17.7199 35.8221 17.7188 36.75V43.75C17.4577 43.75 17.2073 43.8422 17.0227 44.0063C16.8381 44.1704 16.7344 44.3929 16.7344 44.625V47.25C16.7344 47.4821 16.8381 47.7046 17.0227 47.8687C17.2073 48.0328 17.4577 48.125 17.7188 48.125H18.7031V49.875C18.703 50.1731 18.7605 50.4691 18.8729 50.75H16.7344V49C16.7344 48.7679 16.6307 48.5454 16.4461 48.3813C16.2615 48.2172 16.0111 48.125 15.75 48.125H10.8281V22.75H11.8125C12.0736 22.75 12.324 22.6578 12.5086 22.4937C12.6932 22.3296 12.7969 22.1071 12.7969 21.875V20.125H16.7344C16.9954 20.125 17.2458 20.0328 17.4304 19.8687C17.615 19.7046 17.7188 19.4821 17.7188 19.25V4.375C17.7188 4.14294 17.615 3.92038 17.4304 3.75628C17.2458 3.59219 16.9954 3.5 16.7344 3.5H2.95312C2.69205 3.5 2.44167 3.59219 2.25707 3.75628C2.07246 3.92038 1.96875 4.14294 1.96875 4.375V19.25C1.96875 19.4821 2.07246 19.7046 2.25707 19.8687C2.44167 20.0328 2.69205 20.125 2.95312 20.125H6.89062V21.875C6.89062 22.1071 6.99434 22.3296 7.17894 22.4937C7.36355 22.6578 7.61393 22.75 7.875 22.75H8.85938V48.125H3.9375C3.67643 48.125 3.42605 48.2172 3.24144 48.3813C3.05684 48.5454 2.95312 48.7679 2.95312 49V50.75H1.96875C1.70768 50.75 1.4573 50.8422 1.27269 51.0063C1.08809 51.1704 0.984375 51.3929 0.984375 51.625C0.984375 51.8571 1.08809 52.0796 1.27269 52.2437C1.4573 52.4078 1.70768 52.5 1.96875 52.5H61.0312C61.2923 52.5 61.5427 52.4078 61.7273 52.2437C61.9119 52.0796 62.0156 51.8571 62.0156 51.625C62.0156 51.3929 61.9119 51.1704 61.7273 51.0063C61.5427 50.8422 61.2923 50.75 61.0312 50.75ZM10.8281 21H8.85938V20.125H10.8281V21ZM3.9375 18.375V5.25H15.75V18.375H3.9375ZM14.7656 50.75H4.92188V49.875H14.7656V50.75ZM29.0428 25.375H47.7385C48.0842 25.3747 48.4239 25.4554 48.7233 25.609C49.0227 25.7627 49.2713 25.9838 49.4439 26.25H27.3373C27.51 25.9838 27.7585 25.7627 28.0579 25.609C28.3573 25.4554 28.697 25.3747 29.0428 25.375ZM26.8636 28H49.9177L50.9919 33.25H25.7894L26.8636 28ZM19.6875 36.75C19.6882 36.2861 19.8958 35.8413 20.2649 35.5132C20.634 35.1852 21.1343 35.0006 21.6562 35H55.125C55.6469 35.0006 56.1473 35.1852 56.5164 35.5132C56.8854 35.8413 57.0931 36.2861 57.0938 36.75V43.75H19.6875V36.75ZM24.6094 49.875C24.609 50.107 24.5052 50.3293 24.3207 50.4934C24.1361 50.6574 23.886 50.7497 23.625 50.75H21.6562C21.3953 50.7497 21.1451 50.6574 20.9606 50.4934C20.7761 50.3293 20.6722 50.107 20.6719 49.875V48.125H24.6094V49.875ZM26.4083 50.75C26.5208 50.4691 26.5782 50.1731 26.5781 49.875V48.125H50.2031V49.875C50.203 50.1731 50.2605 50.4691 50.3729 50.75H26.4083ZM56.1094 49.875C56.109 50.107 56.0052 50.3293 55.8207 50.4934C55.6361 50.6574 55.386 50.7497 55.125 50.75H53.1562C52.8953 50.7497 52.6451 50.6574 52.4606 50.4934C52.2761 50.3293 52.1722 50.107 52.1719 49.875V48.125H56.1094V49.875ZM18.7031 46.375V45.5H58.0781V46.375H18.7031Z" fill="#FF7913"/>
</svg>
