<svg width="56" height="56" viewBox="0 0 56 56" fill="none" xmlns="http://www.w3.org/2000/svg">
<g clip-path="url(#clip0)">
<path d="M31.5001 56H24.5001C22.8667 56 21.0001 54.6 21.0001 51.8V46.9C21.0001 44.5666 19.8334 42.4666 17.9667 40.8333C13.7667 37.5666 11.6667 32.9 11.6667 27.7666C11.9001 18.9 19.1334 11.9 27.7668 11.6666C32.2001 11.6666 36.4001 13.3 39.4334 16.3333C42.4668 19.3666 44.3334 23.5666 44.3334 28C44.3334 32.9 42.2334 37.5666 38.2668 40.6C36.1668 42.2333 35.0001 44.8 35.0001 47.1333V52.5C35.0001 54.3666 33.3668 56 31.5001 56ZM28.0001 14C20.5334 14 14.2334 20.3 14.0001 27.7666C14.0001 32.2 15.8667 36.4 19.3667 38.9666C21.9334 41.0666 23.3334 43.8666 23.3334 46.9V51.8C23.3334 52.2666 23.3334 53.6666 24.5001 53.6666H31.5001C32.2001 53.6666 32.6668 53.2 32.6668 52.5V47.1333C32.6668 44.1 34.3001 40.8333 36.8668 38.7333C40.1334 36.1666 42.0001 32.2 42.0001 28C42.0001 24.2666 40.6001 20.7666 37.8001 17.9666C35.2334 15.4 31.7334 14 28.0001 14Z" fill="#FF7913"/>
<path d="M33.8333 49H22.1667C21.4667 49 21 48.5333 21 47.8333C21 47.1333 21.4667 46.6666 22.1667 46.6666H33.8333C34.5333 46.6666 35 47.1333 35 47.8333C35 48.5333 34.5333 49 33.8333 49Z" fill="#FF7913"/>
<path d="M27.9999 7C27.2999 7 26.8333 6.53333 26.8333 5.83333V1.16667C26.8333 0.466667 27.2999 0 27.9999 0C28.6999 0 29.1666 0.466667 29.1666 1.16667V5.83333C29.1666 6.53333 28.6999 7 27.9999 7Z" fill="#FF7913"/>
<path d="M43.6334 13.5333C43.4001 13.5333 42.9334 13.5333 42.7001 13.2999C42.2334 12.8333 42.2334 12.1333 42.7001 11.6666L45.9668 8.39993C46.4334 7.93326 47.1334 7.93326 47.6001 8.39993C48.0668 8.86659 48.0668 9.56659 47.6001 10.0333L44.3334 13.2999C44.3334 13.2999 43.8668 13.5333 43.6334 13.5333Z" fill="#FF7913"/>
<path d="M54.8333 29.1667H50.1667C49.4667 29.1667 49 28.7 49 28C49 27.3 49.4667 26.8334 50.1667 26.8334H54.8333C55.5333 26.8334 56 27.3 56 28C56 28.7 55.5333 29.1667 54.8333 29.1667Z" fill="#FF7913"/>
<path d="M46.9001 48.0667C46.6668 48.0667 46.2001 48.0667 45.9668 47.8334L42.7001 44.5667C42.2334 44.1 42.2334 43.4 42.7001 42.9334C43.1668 42.4667 43.8668 42.4667 44.3334 42.9334L47.6001 46.2C48.0668 46.6667 48.0668 47.3667 47.6001 47.8334C47.6001 48.0667 47.3668 48.0667 46.9001 48.0667Z" fill="#FF7913"/>
<path d="M9.09998 48.0667C8.86665 48.0667 8.39998 48.0667 8.16665 47.8334C7.69998 47.3667 7.69998 46.6667 8.16665 46.2L11.4333 42.9334C11.9 42.4667 12.6 42.4667 13.0667 42.9334C13.5333 43.4 13.5333 44.1 13.0667 44.5667L9.79998 47.8334C9.56665 48.0667 9.33332 48.0667 9.09998 48.0667Z" fill="#FF7913"/>
<path d="M5.83333 29.1667H1.16667C0.466667 29.1667 0 28.7 0 28C0 27.3 0.466667 26.8334 1.16667 26.8334H5.83333C6.53333 26.8334 7 27.3 7 28C7 28.7 6.53333 29.1667 5.83333 29.1667Z" fill="#FF7913"/>
<path d="M12.3667 13.5334C12.1333 13.5334 11.6667 13.5334 11.4333 13.3001L8.16665 9.8001C7.69998 9.33344 7.69998 8.63344 8.16665 8.16677C8.63332 7.70011 9.33332 7.70011 9.79998 8.16677L13.0667 11.4334C13.5333 11.9001 13.5333 12.6001 13.0667 13.0668C12.8333 13.3001 12.6 13.5334 12.3667 13.5334Z" fill="#FF7913"/>
<path d="M31.4121 20.6061C32.1678 19.9968 32.9686 19.5396 33.7735 19.2097C34.9754 19.9968 36.0031 21.0245 36.7903 22.2265C36.4603 23.0313 36.0031 23.8322 35.3938 24.5878C34.571 22.8509 33.1491 21.429 31.4121 20.6061Z" fill="#FF7913" stroke="#FF7913" stroke-width="21.3333"/>
</g>
<defs>
<clipPath id="clip0">
<rect width="56" height="56" fill="white"/>
</clipPath>
</defs>
</svg>
