<svg width="63" height="56" viewBox="0 0 63 56" fill="none" xmlns="http://www.w3.org/2000/svg">
<path d="M33.6843 26.2089H29.3159C28.8063 26.2089 28.3931 26.576 28.3931 27.0292C28.3931 27.4823 28.8063 27.8495 29.3159 27.8495H33.6843C34.1941 27.8495 34.6072 27.4823 34.6072 27.0292C34.6072 26.576 34.1941 26.2089 33.6843 26.2089Z" fill="#FF7913"/>
<path d="M47.8576 45.6229H41.3054C40.7956 45.6229 40.3826 45.9901 40.3826 46.4432V50.3262C40.3826 50.6006 40.5367 50.8567 40.7935 51.0087L44.0697 52.9501C44.2247 53.042 44.4031 53.088 44.5815 53.088C44.7599 53.088 44.9385 53.042 45.0935 52.9501L48.3696 51.0083C48.6263 50.8561 48.7805 50.6001 48.7805 50.3258V46.4432C48.7805 45.9901 48.3674 45.6229 47.8576 45.6229ZM46.9348 49.8868L44.5815 51.2816L42.2283 49.8872V47.2635H46.9348V49.8868Z" fill="#FF7913"/>
<path d="M39.1441 15.5311H33.6838C33.1741 15.5311 32.761 15.8983 32.761 16.3514C32.761 16.8046 33.1741 17.1717 33.6838 17.1717H39.1441C39.6539 17.1717 40.067 16.8046 40.067 16.3514C40.067 15.8983 39.6539 15.5311 39.1441 15.5311Z" fill="#FF7913"/>
<path d="M29.3158 15.5311H23.8557C23.3461 15.5311 22.9329 15.8983 22.9329 16.3514C22.9329 16.8046 23.3461 17.1717 23.8557 17.1717H29.3158C29.8254 17.1717 30.2386 16.8046 30.2386 16.3514C30.2386 15.8983 29.8254 15.5311 29.3158 15.5311Z" fill="#FF7913"/>
<path d="M27.1318 18.4432C26.6222 18.4432 26.209 18.8104 26.209 19.2635V20.2342C26.209 20.6874 26.6222 21.0546 27.1318 21.0546C27.6415 21.0546 28.0547 20.6874 28.0547 20.2342V19.2635C28.0547 18.8104 27.6415 18.4432 27.1318 18.4432Z" fill="#FF7913"/>
<path d="M35.8682 18.4432C35.3584 18.4432 34.9453 18.8104 34.9453 19.2635V20.2342C34.9453 20.6874 35.3584 21.0546 35.8682 21.0546C36.3779 21.0546 36.791 20.6874 36.791 20.2342V19.2635C36.791 18.8104 36.3779 18.4432 35.8682 18.4432Z" fill="#FF7913"/>
<path d="M43.5124 34.9453H37.8834V32.9768C40.9383 31.2309 43.0353 28.2711 43.3061 24.8701C45.8033 24.4943 47.7116 22.5592 47.7116 20.2341V18.293C47.7116 16.77 46.3178 15.531 44.6044 15.531H43.3365V14.3347C44.6045 13.5167 45.4498 12.2119 45.5213 10.7312L47.6141 7.01124C47.7917 6.69536 47.7221 6.31397 47.4413 6.06427L43.0729 2.18137C42.944 2.06685 42.7798 1.98876 42.601 1.95704L31.7886 0.0374061C31.7015 0.0130156 31.6087 0 31.5128 0H31.4871C31.3913 0 31.2986 0.0130156 31.2114 0.0374061L20.3989 1.95726C20.2201 1.98898 20.056 2.06707 19.9272 2.18159L15.559 6.06449C15.2775 6.31474 15.2082 6.69711 15.3871 7.01321L17.4851 10.7208C17.553 12.2034 18.3962 13.5105 19.6636 14.3308V15.5312H18.3958C16.6825 15.5312 15.2887 16.7702 15.2887 18.2932V20.2343C15.2887 22.5593 17.1969 24.4944 19.6941 24.8704C19.9649 28.2715 22.062 31.2314 25.1171 32.9772V34.9455H19.5312C13.6029 34.9455 8.78001 39.2325 8.78001 44.4992L8.73658 55.1767C8.73572 55.3948 8.83255 55.6042 9.00568 55.7587C9.17881 55.9132 9.41407 56 9.65943 56H16.2116C16.7213 56 17.1345 55.6328 17.1345 55.1797C17.1345 54.7266 16.7213 54.3594 16.2116 54.3594H10.5855L10.6255 44.5021C10.6255 40.1372 14.6204 36.5861 19.5309 36.5861H21.5819L19.6844 43.3325C19.6076 43.6052 19.6935 43.8941 19.9118 44.0975C20.0877 44.2615 20.3299 44.3517 20.5797 44.3517C20.6398 44.3517 20.7004 44.3465 20.7607 44.3357L26.8095 43.2604L29.3715 45.6893L26.4453 54.3592H20.3152C19.8056 54.3592 19.3924 54.7263 19.3924 55.1795C19.3924 55.6326 19.8056 55.9998 20.3152 55.9998H27.1289C27.13 55.9998 27.1312 56 27.1323 56C27.1332 56 27.1342 55.9998 27.1352 55.9998H35.865C35.866 55.9998 35.867 56 35.8679 56C35.869 56 35.8702 55.9998 35.8713 55.9998H53.3408C53.8506 55.9998 54.2636 55.6326 54.2636 55.1795V44.5019C54.2636 39.2323 49.4407 34.9453 43.5124 34.9453ZM19.6635 23.186C18.2071 22.8283 17.1342 21.6409 17.1342 20.2342V18.2931C17.1342 17.6748 17.7001 17.1717 18.3957 17.1717H19.6635V23.186ZM39.5156 36.5859L41.1714 42.4725L33.2021 41.0557L37.393 36.5859H39.5156ZM31.5002 40.3084L26.9627 35.4685V33.8372C28.3608 34.355 29.8934 34.6416 31.5 34.6416C33.1068 34.6416 34.6396 34.355 36.0377 33.8371V35.4685L31.5002 40.3084ZM44.6044 17.1717C45.2999 17.1717 45.8659 17.6748 45.8659 18.2931V20.2342C45.8659 21.641 44.793 22.8284 43.3365 23.186V17.1717H44.6044ZM18.9091 9.58646L17.3354 6.8055L21.0346 3.51727L31.5 1.6591L41.9655 3.51738L45.6659 6.80638L44.1011 9.58788L35.6733 7.92714V4.703C35.6733 4.24986 35.2602 3.88269 34.7504 3.88269H28.1982C27.6886 3.88269 27.2754 4.24986 27.2754 4.703V7.92856L18.9091 9.58646ZM33.8277 5.52331V8.14655L31.4744 9.54151L29.1212 8.14709V5.52331H33.8277ZM19.4015 11.1698L28.0144 9.46298L30.9624 11.2099C31.1175 11.3018 31.2959 11.3477 31.4743 11.3477C31.6527 11.3477 31.8313 11.3018 31.9863 11.2099L34.935 9.46221L43.6051 11.1706C43.2718 12.5515 41.8879 13.5897 40.2363 13.5897H22.7704C21.1185 13.5897 19.7345 12.5511 19.4015 11.1698ZM21.5092 24.12V15.0942C21.9136 15.1825 22.3357 15.2303 22.7704 15.2303H40.2362C40.6685 15.2303 41.0883 15.1829 41.4907 15.0955V24.12C41.4907 29.0169 37.0088 33.0008 31.4999 33.0008C25.991 33.0008 21.5092 29.017 21.5092 24.12ZM21.8287 42.4725L23.4844 36.5859H25.6076L29.7982 41.0557L21.8287 42.4725ZM28.9399 42.8814L31.4999 42.4263L34.0599 42.8814L32.192 44.6522H30.8077L28.9399 42.8814ZM28.3722 54.3592L31.0947 46.2928H31.9055L34.628 54.3592H28.3722ZM52.4182 54.3592H52.4179H36.5549L33.6287 45.689L36.1907 43.2602L42.2394 44.3355C42.2996 44.3462 42.3601 44.3515 42.4204 44.3515C42.6701 44.3515 42.9123 44.2613 43.0883 44.0973C43.3066 43.8938 43.3925 43.605 43.3158 43.3322L41.4183 36.5859H43.5127C48.4232 36.5859 52.4182 40.1371 52.4182 44.5019V54.3592Z" fill="#FF7913"/>
</svg>
