<svg width="62" height="44" viewBox="0 0 62 44" fill="none" xmlns="http://www.w3.org/2000/svg">
<path d="M49.3965 21.2372H53.9025C58.3675 21.2372 62.0001 17.9562 62.0001 13.9232V12.6334C62.0001 8.60052 58.3675 5.31948 53.9025 5.31948H53.0054V3.74524C53.7103 3.51983 54.2162 2.91404 54.2162 2.20009C54.2162 1.29409 53.403 0.55957 52.3999 0.55957H9.60405C8.60098 0.55957 7.78776 1.29409 7.78776 2.20009C7.78776 2.91404 8.29366 3.51983 8.99862 3.74524V10.5133C8.99862 15.5166 11.1029 20.2433 14.9238 23.8224L18.0647 26.7645H9.52147C4.27131 26.7645 0 30.6299 0 35.3811C0 40.1324 4.27131 43.9979 9.52147 43.9979H60.1579C61.161 43.9979 61.9742 43.2634 61.9742 42.3574C61.9742 41.4514 61.161 40.7169 60.1579 40.7169H59.815C58.7262 39.3499 58.1125 37.5268 58.1125 35.6044C58.1125 33.4622 58.8876 31.4335 60.2085 30.0432C61.188 30.0187 61.9742 29.2956 61.9742 28.405C61.9742 27.499 61.161 26.7645 60.1579 26.7645H43.9392L47.08 23.8224C47.9412 23.0157 48.7142 22.1503 49.3965 21.2372ZM53.9024 8.60052C56.3644 8.60052 58.3674 10.4097 58.3674 12.6334V13.9232C58.3674 16.147 56.3644 17.9562 53.9024 17.9562H51.3584C52.4374 15.6306 53.0052 13.1094 53.0052 10.5132V8.60052H53.9024ZM9.52147 40.7169C6.27431 40.7169 3.63258 38.3232 3.63258 35.3811C3.63258 32.4391 6.27431 30.0455 9.52147 30.0455H55.882C55.2562 31.177 54.8272 32.4351 54.6211 33.764H9.64353C8.64045 33.764 7.82724 34.4985 7.82724 35.4045C7.82724 36.3105 8.64045 37.0451 9.64353 37.0451H54.5715C54.7307 38.3387 55.1019 39.5832 55.6605 40.7169H9.52147ZM38.8929 26.7645H23.1109L17.5387 21.5448C14.374 18.5805 12.6311 14.6626 12.6311 10.5132V3.8405H49.3728V10.5132C49.3728 13.3509 48.5572 16.0802 47.0295 18.4704C46.8546 18.6374 46.7186 18.8374 46.6333 19.0593C46.0096 19.9433 45.2857 20.7764 44.4653 21.5449L38.8929 26.7645Z" fill="#FF7913"/>
</svg>
