<svg width="246" height="246" viewBox="0 0 246 246" fill="none" xmlns="http://www.w3.org/2000/svg">
<path fill-rule="evenodd" clip-rule="evenodd" d="M123 246C190.931 246 246 190.931 246 123C246 55.069 190.931 0 123 0C55.069 0 0 55.069 0 123C0 190.931 55.069 246 123 246ZM115 139.454L139 123L115 106.546V139.454Z" fill="white" fill-opacity="0.2"/>
<path fill-rule="evenodd" clip-rule="evenodd" d="M123 212C172.153 212 212 172.153 212 123C212 73.8467 172.153 34 123 34C73.8467 34 34 73.8467 34 123C34 172.153 73.8467 212 123 212ZM115 139.454L139 123L115 106.546V139.454Z" fill="white" fill-opacity="0.5"/>
<path fill-rule="evenodd" clip-rule="evenodd" d="M123 188C158.899 188 188 158.899 188 123C188 87.1015 158.899 58 123 58C87.1015 58 58 87.1015 58 123C58 158.899 87.1015 188 123 188ZM115 139.454L139 123L115 106.546V139.454Z" fill="white"/>
</svg>
