<svg width="58" height="52" viewBox="0 0 58 52" fill="none" xmlns="http://www.w3.org/2000/svg">
<path d="M35.4476 11.1743C37.9727 11.6113 40.2933 12.707 42.1125 14.3209C43.9316 15.9348 45.1665 17.9936 45.6592 20.2338L35.4476 11.1743ZM35.4476 2C40.6937 2.51705 45.5857 4.6013 49.3205 7.91053C53.0552 11.2198 55.4106 15.5573 56 20.2109L35.4476 2ZM53.4148 38.5136V45.3943C53.4177 46.033 53.2702 46.6653 52.9818 47.2505C52.6934 47.8358 52.2703 48.3612 51.7398 48.793C51.2092 49.2248 50.5829 49.5536 49.9009 49.7582C49.2188 49.9629 48.4961 50.0389 47.7791 49.9814C39.824 49.2145 32.1825 46.8028 25.4688 42.9401C19.2225 39.4187 13.9267 34.7204 9.95755 29.1787C5.58851 23.1953 2.86956 16.3829 2.02098 9.29354C1.95638 8.65929 2.04134 8.02006 2.27046 7.41654C2.49957 6.81302 2.86782 6.25844 3.35176 5.7881C3.83569 5.31776 4.42472 4.94198 5.08132 4.68467C5.73793 4.42736 6.44773 4.29416 7.16554 4.29357H14.9211C16.1758 4.28261 17.3921 4.67677 18.3433 5.40258C19.2946 6.12839 19.916 7.13632 20.0915 8.2385C20.4189 10.4405 21.026 12.6025 21.9012 14.6834C22.249 15.5043 22.3243 16.3965 22.1181 17.2542C21.9119 18.1119 21.4329 18.8992 20.7378 19.5228L17.4546 22.4357C21.1348 28.1777 26.4937 32.932 32.9659 36.1971L36.2491 33.2842C36.9519 32.6676 37.8394 32.2426 38.8061 32.0597C39.7729 31.8768 40.7785 31.9435 41.7038 32.2521C44.0493 33.0286 46.4863 33.5672 48.9683 33.8576C50.2241 34.0148 51.3709 34.576 52.1908 35.4344C53.0106 36.2929 53.4463 37.3887 53.4148 38.5136Z" stroke="#FF7913" stroke-width="3" stroke-linecap="round" stroke-linejoin="round"/>
</svg>
